<svg xmlns="http://www.w3.org/2000/svg" viewBox="0 0 1254 1254"><path fill="#6e5bff" d="M629.125 261.625h3.99c21.23.02 41.92 1.06 62.89 4.38 1.21.18 2.43.36 3.68.55 67.88 10.27 134.13 37.92 184.32 85.45.27.25.27.25 1.65 1.54 13.26 12.51 25.12 26.58 26.58 45.54.38 16.81-4.39 33.44-15.61 46.29-1.52 1.56-3.06 3.1-4.62 4.63-.67.69-1.33 1.39-2.02 2.1-6.61 6.5-14.67 10.1-22.98 13.9-.69.31-1.37.62-2.07.95-4.86 2.23-9.73 4.4-14.61 6.57-6.99 3.1-13.97 6.23-20.95 9.35-.81.36-1.61.72-2.44 1.09a9372 9372 0 0 0-80.43 36.41c-9.61 4.4-19.23 8.76-28.88 13.06-12.58 5.62-25.11 11.36-37.62 17.13-10.16 4.67-20.32 9.32-30.5 13.94-13.21 5.99-26.4 12.03-39.57 18.09-9.71 4.47-19.43 8.92-29.16 13.36-13.1 5.98-26.2 12-39.27 18.05-24.99 11.54-50.02 22.97-75.08 34.35-7.09 3.22-14.18 6.44-21.25 9.68l-2.24 1.03c-1.48.68-2.97 1.36-4.46 2.04-13.96 6.39-27.94 12.73-41.97 18.98q-6.18 2.76-12.33 5.61c-26.05 12.1-26.05 12.1-39.61 7.74-21.32-8.45-34.58-33.24-43.4-53.18-25.12-59.62-21.49-124.04 2.13-183.51 10.48-25.67 24.45-49.08 41.71-70.74.78-1 1.57-1.99 2.38-3.01 3.77-4.7 7.61-9.15 11.95-13.33 1.73-1.73 3.28-3.54 4.85-5.42 4.82-5.56 10.31-10.39 15.82-15.24.51-.46 1.03-.92 1.57-1.39 8.43-7.4 17.25-14.16 26.43-20.61.58-.42 1.17-.84 1.78-1.27 26.13-18.28 55.1-32.4 85.22-42.73.91-.32 1.83-.64 2.77-.96 20.4-6.98 41.18-11.69 62.41-15.3.73-.12 1.45-.24 2.2-.37 22.2-3.8 44.23-4.78 66.74-4.75M960.5 502.563c7.83 4.82 11.19 11.77 13.5 20.44 14.7 65.46-3.45 141.16-38.43 197.29-8.48 13.34-17.82 25.85-28.53 37.49-1.84 1.99-3.6 4.03-5.35 6.09-7.32 8.37-15.23 16.03-23.95 22.94-1.82 1.45-3.6 2.94-5.36 4.47-9.44 8.23-19.85 14.97-30.38 21.72-.34.21-.34.21-2.04 1.31-47.87 30.34-109.31 52.3-166.52 53l-2.42.09c-6.42.07-11.7-1.41-16.55-5.78-4.84-5.39-5.75-10.64-5.69-17.6.44-6.05 1.99-11.9 3.4-17.79.34-1.43.67-2.86 1.01-4.29.88-3.8 1.78-7.6 2.69-11.4.94-3.96 1.87-7.93 2.8-11.9 2.09-8.88 4.2-17.76 6.32-26.64.24-1.03.49-2.05.74-3.11 2.08-8.71 4.2-17.4 6.34-26.09 2.77-11.23 5.49-22.46 8.21-33.7 1.05-4.34 2.1-8.68 3.16-13.02 3.34-13.72 6.65-27.45 9.85-41.21.5-2.13 1-4.26 1.5-6.4.9-3.86 1.78-7.72 2.66-11.59 3.02-13.08 6.52-26.09 18.48-33.77 8.45-4.8 17.05-9.04 25.94-12.99 1.42-.64 2.84-1.28 4.27-1.92 3.03-1.36 6.06-2.72 9.1-4.08 7.37-3.29 14.73-6.61 22.09-9.92 2.55-1.15 5.09-2.29 7.64-3.43a5488 5488 0 0 0 34.92-15.88c11.9-5.46 23.85-10.8 35.83-16.09 9.94-4.41 19.85-8.88 29.71-13.49 9-4.2 18.01-8.38 27.06-12.46 1.8-.82 3.59-1.63 5.38-2.45 29.84-13.43 29.84-13.43 42.62-7.84M632 645c2.56 1.88 2.56 1.88 4 5 .95 7.97-.98 15.53-2.86 23.22-.3 1.27-.6 2.54-.91 3.84-.81 3.44-1.64 6.87-2.46 10.3-.88 3.63-1.74 7.27-2.61 10.91-1.72 7.27-3.47 14.54-5.22 21.81-1.07 4.48-2.15 8.96-3.22 13.44-1.59 6.67-3.19 13.34-4.8 20a14432 14432 0 0 0-10.49 43.87l-5.97 25.08c-.1.44-.1.44-.63 2.66-.42 1.76-.83 3.51-1.25 5.27l-3.06 12.84-1.2 5.01c-.19.81-.39 1.62-.59 2.46-1.15 4.83-2.28 9.66-3.4 14.49-.7 3.04-1.41 6.07-2.13 9.1-.32 1.39-.65 2.79-.96 4.19-2.49 10.99-5.59 20.36-13.49 28.57-.48.5-.95 1-1.44 1.52-3.68 3.85-7.47 7.6-11.26 11.34-2.54 2.58-4.88 5.3-7.24 8.05-2.02 2.27-4.15 4.4-6.31 6.53-2.77 2.73-5.41 5.49-7.94 8.44-3.5 4.09-7.32 7.83-11.15 11.62-2.68 2.71-5.16 5.55-7.63 8.44-2.73 3.06-5.67 5.9-8.58 8.77-2.04 2.07-3.94 4.2-5.82 6.42-8.98 10.4-8.98 10.4-15.38 11.81-5.89-.19-9.37-1.12-14-5-5.85-6.65-4.14-18.89-4.08-27.25 0-1.06 0-2.13.01-3.23q0-3.435.03-6.87l.03-10.92c.03-10.33.06-20.67.11-31 .02-6.35.04-12.69.05-19.03l.03-7.21q.03-5.055.03-10.11c.01-.49.01-.49.03-2.96-.02-11.66-1.04-23.22-9.68-31.86-4.52-4.09-9.43-6.88-14.81-9.68-56.3-30.25-56.3-30.25-63.75-48.88-1.55-6.14-1.22-10.39 2-16 6.77-10.24 18.74-15.06 29.62-19.75 2.58-1.13 5.15-2.26 7.72-3.4l2.06-.91c9.01-3.98 17.92-8.16 26.85-12.32 12.52-5.82 25.05-11.61 37.63-17.31a5199.3 5199.3 0 0 0 10.03-4.55c7.83-3.55 15.65-7.12 23.47-10.7.36-.16.36-.16 2.19-1 3.68-1.68 7.35-3.36 11.02-5.04a7685 7685 0 0 1 15.36-7.02c3.62-1.66 7.25-3.32 10.88-4.98 6.76-3.09 13.52-6.18 20.27-9.28 3.15-1.44 6.3-2.88 9.44-4.32 1.49-.68 2.97-1.36 4.45-2.05 4.66-2.14 9.33-4.27 14.01-6.37.65-.29 1.3-.59 1.98-.89 1.9-.85 3.8-1.69 5.71-2.53 1.1-.48 2.19-.96 3.32-1.46 4.43-1.66 7.31-1.95 11.99-1.12"/></svg>